<svg width="28" height="32" viewBox="0 0 28 32" fill="none" xmlns="http://www.w3.org/2000/svg" xmlns:xlink="http://www.w3.org/1999/xlink">
<path d="M16.778,24.994C12.03,24.994 8.025,21.307 8.025,16.022C8.025,11.023 11.865,7.049 16.862,7.049C19.323,7.049 21.471,7.973 23.034,9.502C23.788,7.113 24.961,4.879 26.521,2.881C23.789,1.072 20.466,0.041 16.902,0.041C7.736,0.041 0.138,6.843 0.138,15.98C0.138,25.568 7.776,32 16.778,32C20.372,32 23.721,31.001 26.468,29.226C24.926,27.231 23.764,24.983 23.02,22.564C21.434,24.087 19.254,24.994 16.778,24.994Z" fill="#000000" fill-opacity="0.7"/>
</svg>
