<svg width="34" height="32" viewBox="0 0 34 32" fill="none" xmlns="http://www.w3.org/2000/svg" xmlns:xlink="http://www.w3.org/1999/xlink">
<path d="M16.158,0.041C10.405,0.041 5.272,2.721 2.244,6.974C0.449,9.499 -0.606,12.578 -0.606,15.98C-0.606,19.382 0.445,22.657 2.227,25.179C5.248,29.454 10.372,32 16.034,32C25.242,32 32.84,25.444 32.84,16.061C32.84,6.679 25.284,0.041 16.158,0.041ZM16.034,24.994C11.286,24.994 7.281,21.307 7.281,16.022C7.281,11.023 11.121,7.049 16.118,7.049C21.115,7.049 24.955,10.982 24.955,16.063C24.955,21.144 21.115,24.994 16.036,24.994L16.034,24.994Z" fill="#000000" fill-opacity="0.7"/>
</svg>
