<svg width="34" height="32" viewBox="0 0 34 32" fill="none" xmlns="http://www.w3.org/2000/svg" xmlns:xlink="http://www.w3.org/1999/xlink">
<path d="M0,16.144C0,6.556 7.391,0 16.722,0C22.338,0 27.417,2.253 30.678,7.088L23.948,10.57C22.131,8.112 19.777,6.801 16.804,6.801C11.56,6.801 7.886,10.857 7.886,16.184C7.886,21.511 11.891,25.486 16.557,25.486C20.397,25.486 23.164,23.191 23.659,20.159L23.659,20.117L17.135,20.117L17.135,14.3L32.206,14.3L32.206,15.61C32.206,25.69 26.136,32 16.475,32C7.349,32 0,25.486 0,16.144Z" fill="#000000" fill-opacity="0.7"/>
</svg>
